<!DOCTYPE svg PUBLIC "-//W3C//DTD SVG 1.1//EN" "http://www.w3.org/Graphics/SVG/1.1/DTD/svg11.dtd">
<!-- Uploaded to: SVG Repo, www.svgrepo.com, Transformed by: SVG Repo Mixer Tools -->
<svg height="64px" width="64px" version="1.1" id="Layer_1" xmlns="http://www.w3.org/2000/svg" xmlns:xlink="http://www.w3.org/1999/xlink" viewBox="0 0 511.984 511.984" xml:space="preserve" fill="#000000">
<g id="SVGRepo_bgCarrier" stroke-width="0"/>
<g id="SVGRepo_tracerCarrier" stroke-linecap="round" stroke-linejoin="round"/>
<g id="SVGRepo_iconCarrier"> <polygon style="fill:#f8f8f8;" points="39.812,395.77 255.992,21.331 472.172,395.77 "/> <g> <path style="fill:#626262;" d="M255.992,0.004L21.345,406.442H490.64L255.992,0.004z M255.992,42.674l197.711,342.44H58.281 L255.992,42.674z"/> <path style="fill:#626262;" d="M202.525,257.119c11.75,0,21.327,9.562,21.327,21.328h21.328c0-23.562-19.093-42.671-42.655-42.671 s-42.67,19.108-42.67,42.671v42.67c0,23.562,19.109,42.654,42.67,42.654s42.655-19.093,42.655-42.654h-21.328 c0,11.765-9.577,21.327-21.327,21.327c-11.765,0-21.343-9.562-21.343-21.327v-42.67 C181.182,266.681,190.76,257.119,202.525,257.119z"/> <polygon style="fill:#626262;" points="298.616,342.444 298.616,235.776 277.273,235.776 277.273,342.444 277.273,363.771 298.616,363.771 351.942,363.771 351.942,342.444 "/> </g> <path style="fill:#191919;" d="M10.658,511.984c-2.719,0-5.438-1.047-7.531-3.125c-4.156-4.171-4.156-10.921,0-15.077L493.764,3.128 c4.188-4.171,10.938-4.171,15.093,0c4.156,4.156,4.156,10.922,0,15.078L18.22,508.859C16.126,510.937,13.408,511.984,10.658,511.984 z"/> </g>
</svg>