<!DOCTYPE svg PUBLIC "-//W3C//DTD SVG 1.1//EN" "http://www.w3.org/Graphics/SVG/1.1/DTD/svg11.dtd">
<!-- Uploaded to: SVG Repo, www.svgrepo.com, Transformed by: SVG Repo Mixer Tools -->
<svg height="64px" width="64px" version="1.1" id="Layer_1" xmlns="http://www.w3.org/2000/svg" xmlns:xlink="http://www.w3.org/1999/xlink" viewBox="0 0 511.977 511.977" xml:space="preserve" fill="#000000">
<g id="SVGRepo_bgCarrier" stroke-width="0"/>
<g id="SVGRepo_tracerCarrier" stroke-linecap="round" stroke-linejoin="round"/>
<g id="SVGRepo_iconCarrier"> <polygon style="fill:#f8f8f8;" points="423.253,171.731 379.926,151.732 322.584,172.387 255.086,147.06 190.596,178.387 123.263,147.06 79.937,174.387 23.275,171.731 87.936,396.38 424.581,392.38 484.579,171.731 "/> <path style="fill:#c9c9c9;" d="M490.64,145.998l-24.812,16.546c-4.891,3.266-11.328,4.891-17.75,4.891 c-6.437,0-12.873-1.625-17.764-4.891l-28.483-18.999c-4.891-3.25-11.328-4.875-17.75-4.875c-6.438,0-12.875,1.625-17.765,4.875 l-28.483,18.999c-4.891,3.266-11.328,4.891-17.749,4.891c-6.438,0-12.875-1.625-17.749-4.891l-28.499-18.999 c-4.891-3.25-11.328-4.875-17.758-4.875c-6.437,0-12.867,1.625-17.75,4.875l-28.499,18.999c-4.883,3.266-11.312,4.891-17.75,4.891 s-12.867-1.625-17.75-4.891l-28.499-18.999c-4.883-3.25-11.312-4.875-17.75-4.875c-6.43,0-12.867,1.625-17.75,4.875l-28.499,18.999 c-4.883,3.266-11.312,4.891-17.75,4.891c-6.43,0-12.867-1.625-17.75-4.891L19.527,144.67v25.639l14.968,9.984 c8.188,5.468,18.695,8.468,29.585,8.468s21.397-3,29.584-8.468l28.499-19c0.672-0.438,2.773-1.297,5.914-1.297 c3.141,0,5.242,0.859,5.914,1.297l28.499,19c8.187,5.468,18.695,8.468,29.585,8.468s21.398-3,29.584-8.468l28.5-19 c0.672-0.438,2.773-1.297,5.914-1.297c3.141,0,5.243,0.859,5.915,1.297l28.499,19c8.188,5.468,18.687,8.468,29.593,8.468 c10.874,0,21.374-3,29.562-8.468l28.498-19c0.688-0.438,2.781-1.297,5.938-1.297c3.125,0,5.234,0.859,5.906,1.297l28.5,19 c8.187,5.468,18.687,8.468,29.591,8.468c10.875,0,21.375-3,29.562-8.468l12.999-8.656v-25.639H490.64z"/> <path style="fill:#626262;" d="M426.643,405.317H85.335c-4.82,0-9.046-3.234-10.296-7.891L0.369,120.108 c-1.531-5.687,1.844-11.546,7.531-13.078s11.539,1.844,13.07,7.531l72.536,269.428h324.982l72.527-269.428 c1.531-5.688,7.375-9.062,13.062-7.531c5.702,1.531,9.062,7.391,7.53,13.078l-74.652,277.319 C435.706,402.083,431.471,405.317,426.643,405.317z"/> <path style="fill:#F8f8f8;" d="M255.086,309.32c-11.757,0-21.327-9.562-21.327-21.327c0-11.765,9.57-21.327,21.327-21.327 c11.766,0,21.344,9.562,21.344,21.327C276.43,299.759,266.852,309.32,255.086,309.32z"/> <path style="fill:#c9c9c9;" d="M255.086,255.993c-17.671,0-31.991,14.329-31.991,32s14.32,31.999,31.991,31.999 c17.688,0,32-14.328,32-31.999S272.774,255.993,255.086,255.993z M255.086,298.665c-5.875,0-10.664-4.797-10.664-10.672 c0-5.874,4.789-10.671,10.664-10.671c5.883,0,10.672,4.797,10.672,10.671C265.759,293.868,260.969,298.665,255.086,298.665z"/> </g>
</svg>