<!DOCTYPE svg PUBLIC "-//W3C//DTD SVG 1.1//EN" "http://www.w3.org/Graphics/SVG/1.1/DTD/svg11.dtd">
<!-- Uploaded to: SVG Repo, www.svgrepo.com, Transformed by: SVG Repo Mixer Tools -->
<svg height="64px" width="64px" version="1.1" id="Layer_1" xmlns="http://www.w3.org/2000/svg" xmlns:xlink="http://www.w3.org/1999/xlink" viewBox="0 0 511.97 511.97" xml:space="preserve" fill="#000000" stroke="#000000" stroke-width="0.0051197199999999995">
<g id="SVGRepo_bgCarrier" stroke-width="0"/>
<g id="SVGRepo_tracerCarrier" stroke-linecap="round" stroke-linejoin="round"/>
<g id="SVGRepo_iconCarrier"> <polygon style="fill:#f8f8f8;" points="423.246,118.391 379.919,98.392 322.577,119.063 255.08,93.72 190.582,125.063 123.257,93.72 79.93,121.063 23.26,118.391 87.93,343.032 424.574,339.032 484.572,118.391 "/> <path style="fill:#c9c9c9;" d="M490.649,92.658l-24.843,16.562c-4.875,3.25-11.312,4.875-17.75,4.875 c-6.421,0-12.857-1.625-17.748-4.875l-28.499-18.999c-4.875-3.266-11.312-4.891-17.75-4.891s-12.859,1.625-17.749,4.891 l-28.499,18.999c-4.875,3.25-11.312,4.875-17.749,4.875c-6.422,0-12.859-1.625-17.749-4.875l-28.499-18.999 c-4.875-3.266-11.312-4.891-17.75-4.891c-6.421,0-12.859,1.625-17.75,4.891l-28.483,18.999c-4.891,3.25-11.328,4.875-17.765,4.875 c-6.422,0-12.859-1.625-17.75-4.875l-28.483-18.999c-4.891-3.266-11.328-4.891-17.75-4.891c-6.438,0-12.875,1.625-17.75,4.891 L81.834,109.22c-4.891,3.25-11.328,4.875-17.75,4.875c-6.438,0-12.875-1.625-17.75-4.875L19.526,91.345v25.64l14.968,9.984 c8.188,5.453,18.703,8.452,29.593,8.452s21.39-2.999,29.577-8.452l28.499-19c0.672-0.453,2.781-1.297,5.922-1.297 c3.125,0,5.234,0.844,5.906,1.297l28.499,19c8.187,5.453,18.703,8.452,29.577,8.452c10.89,0,21.406-2.999,29.592-8.452l28.5-19 c0.672-0.453,2.765-1.297,5.906-1.297c3.141,0,5.25,0.844,5.922,1.297l28.499,19c8.188,5.453,18.687,8.452,29.577,8.452 c10.89,0,21.405-2.999,29.593-8.452l28.498-19c0.672-0.453,2.766-1.297,5.906-1.297s5.25,0.844,5.922,1.297l28.5,19 c8.187,5.453,18.687,8.452,29.575,8.452c10.891,0,21.406-2.999,29.594-8.452l12.999-8.672L490.649,92.658L490.649,92.658z"/> <g> <path style="fill:#626262;" d="M426.652,351.985H85.336c-4.828,0-9.046-3.234-10.312-7.891L0.37,66.768 c-1.53-5.687,1.828-11.531,7.516-13.062c5.703-1.531,11.546,1.828,13.078,7.516l72.544,269.42h324.958l72.543-269.42 c1.531-5.688,7.391-9.047,13.078-7.516c5.687,1.531,9.046,7.375,7.515,13.062L436.95,344.094 C435.699,348.751,431.465,351.985,426.652,351.985z"/> <path style="fill:#626262;" d="M84.742,405.311h341.316c5.891,0,10.672-4.781,10.672-10.672s-4.781-10.656-10.672-10.656H84.742 c-5.89,0-10.671,4.766-10.671,10.656S78.852,405.311,84.742,405.311z"/> <path style="fill:#626262;" d="M426.058,437.31H84.742c-5.89,0-10.671,4.78-10.671,10.67c0,5.891,4.781,10.656,10.671,10.656 h341.316c5.891,0,10.672-4.766,10.672-10.656C436.73,442.09,431.949,437.31,426.058,437.31z"/> </g> </g>
</svg>